<svg width="49" height="68" viewBox="0 0 49 68" fill="none" xmlns="http://www.w3.org/2000/svg">
<path d="M16.4148 15.2216H13.7557C13.6534 14.6534 13.4631 14.1534 13.1847 13.7216C12.9063 13.2898 12.5653 12.9233 12.1619 12.6222C11.7585 12.321 11.3068 12.0937 10.8068 11.9403C10.3125 11.7869 9.78693 11.7102 9.23011 11.7102C8.22443 11.7102 7.32386 11.9631 6.52841 12.4688C5.73864 12.9744 5.11364 13.7159 4.65341 14.6932C4.19886 15.6705 3.97159 16.8636 3.97159 18.2727C3.97159 19.6932 4.19886 20.892 4.65341 21.8693C5.11364 22.8466 5.74148 23.5852 6.53693 24.0852C7.33239 24.5852 8.22727 24.8352 9.22159 24.8352C9.77273 24.8352 10.2955 24.7614 10.7898 24.6136C11.2898 24.4602 11.7415 24.2358 12.1449 23.9403C12.5483 23.6449 12.8892 23.2841 13.1676 22.858C13.4517 22.4261 13.6477 21.9318 13.7557 21.375L16.4148 21.3835C16.2727 22.2415 15.9972 23.0312 15.5881 23.7528C15.1847 24.4688 14.6648 25.0881 14.0284 25.6108C13.3977 26.1278 12.6761 26.5284 11.8636 26.8125C11.0511 27.0966 10.1648 27.2386 9.20455 27.2386C7.69318 27.2386 6.34659 26.8807 5.16477 26.1648C3.98295 25.4432 3.05114 24.4119 2.36932 23.071C1.69318 21.7301 1.35511 20.1307 1.35511 18.2727C1.35511 16.4091 1.69602 14.8097 2.37784 13.4744C3.05966 12.1335 3.99148 11.1051 5.1733 10.3892C6.35511 9.66761 7.69886 9.30682 9.20455 9.30682C10.1307 9.30682 10.9943 9.44034 11.7955 9.70739C12.6023 9.96875 13.3267 10.3551 13.9688 10.8665C14.6108 11.3722 15.142 11.9915 15.5625 12.7244C15.983 13.4517 16.267 14.2841 16.4148 15.2216ZM34.272 18.2727C34.272 20.1364 33.9311 21.7386 33.2493 23.0795C32.5674 24.4148 31.6328 25.4432 30.4453 26.1648C29.2635 26.8807 27.9197 27.2386 26.414 27.2386C24.9027 27.2386 23.5532 26.8807 22.3657 26.1648C21.1839 25.4432 20.2521 24.4119 19.5703 23.071C18.8885 21.7301 18.5476 20.1307 18.5476 18.2727C18.5476 16.4091 18.8885 14.8097 19.5703 13.4744C20.2521 12.1335 21.1839 11.1051 22.3657 10.3892C23.5532 9.66761 24.9027 9.30682 26.414 9.30682C27.9197 9.30682 29.2635 9.66761 30.4453 10.3892C31.6328 11.1051 32.5674 12.1335 33.2493 13.4744C33.9311 14.8097 34.272 16.4091 34.272 18.2727ZM31.664 18.2727C31.664 16.8523 31.4339 15.6562 30.9737 14.6847C30.5191 13.7074 29.8941 12.9688 29.0987 12.4688C28.3089 11.9631 27.414 11.7102 26.414 11.7102C25.4083 11.7102 24.5106 11.9631 23.7208 12.4688C22.9311 12.9688 22.3061 13.7074 21.8458 14.6847C21.3913 15.6562 21.164 16.8523 21.164 18.2727C21.164 19.6932 21.3913 20.892 21.8458 21.8693C22.3061 22.8409 22.9311 23.5795 23.7208 24.0852C24.5106 24.5852 25.4083 24.8352 26.414 24.8352C27.414 24.8352 28.3089 24.5852 29.0987 24.0852C29.8941 23.5795 30.5191 22.8409 30.9737 21.8693C31.4339 20.892 31.664 19.6932 31.664 18.2727Z" fill="#1E1E1E"/>
<path d="M1.91761 43V25.5455H12.8011V27.8125H4.55114V32.5852H8.45455C9.75 32.5852 10.8494 32.7955 11.7528 33.2159C12.6619 33.6364 13.3551 34.2301 13.8324 34.9972C14.3153 35.7642 14.5568 36.6676 14.5568 37.7074C14.5568 38.7472 14.3153 39.6648 13.8324 40.4602C13.3551 41.2557 12.6619 41.8778 11.7528 42.3267C10.8494 42.7756 9.75 43 8.45455 43H1.91761ZM4.55114 40.7841H8.45455C9.20455 40.7841 9.83807 40.6364 10.3551 40.3409C10.8778 40.0455 11.2727 39.6619 11.5398 39.1903C11.8125 38.7187 11.9489 38.2131 11.9489 37.6733C11.9489 36.8892 11.6477 36.2159 11.0455 35.6534C10.4432 35.0852 9.57955 34.8011 8.45455 34.8011H4.55114V40.7841ZM19.061 32.5852H23.7656C25.061 32.5852 26.1633 32.7955 27.0724 33.2159C27.9815 33.6364 28.6747 34.2301 29.152 34.9972C29.6349 35.7642 29.8735 36.6676 29.8679 37.7074C29.8735 38.7472 29.6349 39.6648 29.152 40.4602C28.6747 41.2557 27.9815 41.8778 27.0724 42.3267C26.1633 42.7756 25.061 43 23.7656 43H17.2287V25.5455H19.8707V40.7841H23.7656C24.5213 40.7841 25.1576 40.6364 25.6747 40.3409C26.1974 40.0455 26.5923 39.6619 26.8593 39.1903C27.1321 38.7187 27.2684 38.2131 27.2684 37.6733C27.2684 36.8892 26.9673 36.2159 26.365 35.6534C25.7628 35.0852 24.8963 34.8011 23.7656 34.8011H19.061V32.5852ZM34.1207 25.5455V43H31.4787V25.5455H34.1207Z" fill="#1E1E1E"/>
<path d="M1.05682 43.8125V41.5455H14.5653V43.8125H9.11932V59H6.49432V43.8125H1.05682ZM17.0944 41.5455H19.7024V54.3636H19.8643L28.745 41.5455H31.1825V59H28.549V46.1989H28.387L19.5234 59H17.0944V41.5455ZM46.9431 59H44.3011V43.804H40.9943C40.1306 43.804 39.4289 43.9347 38.8891 44.196C38.3494 44.4517 37.9545 44.821 37.7045 45.304C37.4545 45.7869 37.3295 46.358 37.3295 47.017C37.3295 47.6705 37.4545 48.2301 37.7045 48.696C37.9545 49.1619 38.3465 49.517 38.8806 49.7614C39.4147 50.0057 40.1107 50.1278 40.9687 50.1278H45.4431V52.3949H40.7215C39.3749 52.3949 38.2528 52.1705 37.355 51.7216C36.463 51.2727 35.7925 50.6449 35.3437 49.8381C34.9005 49.0256 34.6789 48.0852 34.6789 47.017C34.6789 45.9432 34.9005 44.9972 35.3437 44.179C35.7869 43.3551 36.4545 42.7102 37.3465 42.2443C38.2443 41.7784 39.3664 41.5455 40.713 41.5455H46.9431V59ZM38.3266 51.125H41.2414L37.0056 59H34.0141L38.3266 51.125Z" fill="#1E1E1E"/>
</svg>
