<svg id="Слой_1" data-name="Слой 1" xmlns="http://www.w3.org/2000/svg" width="640" height="480" viewBox="0 0 640 480">
  <defs>
    <style>
      .cls-1, .cls-3 {
        fill: none;
        stroke-width: 5px;
      }

      .cls-1 {
        stroke: #39a935;
      }

      .cls-1, .cls-2, .cls-3 {
        stroke-miterlimit: 10;
      }

      .cls-2 {
        fill: #39a935;
        stroke: #1d1d1b;
        stroke-width: 0.5px;
      }

      .cls-3 {
        stroke: #3aaa35;
      }
    </style>
  </defs>
  <line class="cls-1" x1="522.26" y1="51.74" x2="527" y2="417"/>
  <line class="cls-1" x1="524.84" y1="51.76" x2="395.36" y2="51.24"/>
  <line class="cls-1" x1="522.6" y1="77.38" x2="465.9" y2="77.39"/>
  <line class="cls-1" x1="397.9" y1="51.5" x2="399.45" y2="215.71"/>
  <line class="cls-1" x1="398.4" y1="103.71" x2="500.35" y2="103.71"/>
  <line class="cls-1" x1="524.68" y1="215.18" x2="396.91" y2="215.71"/>
  <line class="cls-1" x1="522.26" y1="51.74" x2="584.74" y2="51.5"/>
  <line class="cls-1" x1="584.23" y1="5.54" x2="584.23" y2="54.06"/>
  <line class="cls-1" x1="504.36" y1="215.27" x2="504.36" y2="178.8"/>
  <line class="cls-1" x1="504.55" y1="215.26" x2="504.55" y2="253.65"/>
  <line class="cls-1" x1="526.3" y1="363.06" x2="472.48" y2="363.32"/>
  <line class="cls-1" x1="472.48" y1="360.82" x2="473.26" y2="402.37"/>
  <line class="cls-1" x1="472.87" y1="386.06" x2="194.94" y2="385.68"/>
  <line class="cls-1" x1="194.64" y1="388.09" x2="194.25" y2="369.51"/>
  <path class="cls-1" d="M196.68,368.87l-52.26.58q-.39,8.32-.77,16.65"/>
  <line class="cls-1" x1="222.03" y1="385.72" x2="222.42" y2="408.35"/>
  <line class="cls-1" x1="219.71" y1="407.97" x2="278.94" y2="408.74"/>
  <line class="cls-1" x1="249.32" y1="406.05" x2="249.32" y2="443.59"/>
  <line class="cls-1" x1="280.87" y1="406.25" x2="280.48" y2="456.95"/>
  <line class="cls-1" x1="219.71" y1="407.97" x2="185.65" y2="408.35"/>
  <line class="cls-1" x1="386.55" y1="385.94" x2="354.81" y2="411.06"/>
  <line class="cls-1" x1="355.81" y1="411.06" x2="318.26" y2="410.68"/>
  <line class="cls-1" x1="349" y1="408.55" x2="349.39" y2="457.85"/>
  <line class="cls-1" x1="318.42" y1="408.21" x2="318.55" y2="464.09"/>
  <line class="cls-1" x1="181.77" y1="163.71" x2="181.77" y2="313.13"/>
  <line class="cls-1" x1="179.45" y1="313.13" x2="285.9" y2="313.13"/>
  <line class="cls-1" x1="285.9" y1="268.58" x2="285.9" y2="315.42"/>
  <line class="cls-1" x1="179.45" y1="166.13" x2="288.61" y2="108.84"/>
  <line class="cls-1" x1="286.9" y1="108.81" x2="307.81" y2="108.81"/>
  <line class="cls-1" x1="307.81" y1="111.27" x2="306.03" y2="6.13"/>
  <line class="cls-1" x1="179.45" y1="313.13" x2="162.55" y2="313.13"/>
  <polygon class="cls-2" points="526.64 397.38 536.16 380.88 517.11 380.88 526.64 397.38"/>
  <polygon class="cls-2" points="526.08 354.22 535.61 337.72 516.55 337.72 526.08 354.22"/>
  <polygon class="cls-2" points="182.2 285.08 191.73 268.58 172.68 268.58 182.2 285.08"/>
  <polygon class="cls-2" points="181.77 229.43 191.3 212.93 172.25 212.93 181.77 229.43"/>
  <polygon class="cls-2" points="181.77 179.11 191.3 162.61 172.25 162.61 181.77 179.11"/>
  <polygon class="cls-2" points="524.63 269.02 534.16 252.52 515.11 252.52 524.63 269.02"/>
  <polygon class="cls-2" points="524.97 269.02 534.5 252.52 515.45 252.52 524.97 269.02"/>
  <polygon class="cls-2" points="523.91 189.8 533.44 173.3 514.38 173.3 523.91 189.8"/>
  <polygon class="cls-2" points="504.55 200.8 514.08 184.3 495.02 184.3 504.55 200.8"/>
  <polygon class="cls-2" points="398.68 194.25 408.2 177.75 389.15 177.75 398.68 194.25"/>
  <polygon class="cls-2" points="553.29 51.69 536.67 42.38 536.91 61.43 553.29 51.69"/>
  <polygon class="cls-2" points="494.25 77.17 477.63 67.86 477.87 86.91 494.25 77.17"/>
  <polygon class="cls-2" points="442.57 215.05 425.95 205.74 426.2 224.79 442.57 215.05"/>
  <polygon class="cls-2" points="267.16 312.92 250.54 303.6 250.78 322.65 267.16 312.92"/>
  <polygon class="cls-2" points="515.36 215.3 498.73 205.99 498.98 225.04 515.36 215.3"/>
  <polygon class="cls-2" points="471.82 103.81 488.32 113.34 488.32 94.29 471.82 103.81"/>
  <polygon class="cls-2" points="421.3 103.81 437.8 113.34 437.8 94.29 421.3 103.81"/>
  <polygon class="cls-2" points="372.53 385.87 389.03 395.4 389.03 376.35 372.53 385.87"/>
  <polygon class="cls-2" points="171.2 313.13 187.7 322.65 187.7 303.6 171.2 313.13"/>
  <polygon class="cls-2" points="264.18 386.1 280.68 395.62 280.68 376.57 264.18 386.1"/>
  <polygon class="cls-2" points="168.76 368.87 185.26 378.4 185.26 359.35 168.76 368.87"/>
  <polygon class="cls-2" points="143.65 381.38 153.17 364.88 134.12 364.88 143.65 381.38"/>
  <polygon class="cls-2" points="398.68 69.2 389.15 85.7 408.2 85.7 398.68 69.2"/>
  <polygon class="cls-2" points="503.94 233.36 496.33 246.64 511.54 246.64 503.94 233.36"/>
  <polygon class="cls-2" points="584.23 12.04 574.7 28.54 593.75 28.54 584.23 12.04"/>
  <path class="cls-1" d="M527.39,415.68q-14,27.29-28.07-.39"/>
  <line class="cls-1" x1="499.57" y1="416.89" x2="499.68" y2="406.85"/>
  <polygon class="cls-2" points="499.62 401.54 490.09 418.04 509.15 418.04 499.62 401.54"/>
  <polygon class="cls-2" points="471.82 373.37 462.29 389.87 481.35 389.87 471.82 373.37"/>
  <polygon class="cls-2" points="349.22 427.83 339.69 444.33 358.74 444.33 349.22 427.83"/>
  <polygon class="cls-2" points="285.9 268.58 276.38 285.08 295.43 285.08 285.9 268.58"/>
  <polygon class="cls-2" points="306.43 21.55 296.9 38.05 315.96 38.05 306.43 21.55"/>
  <polygon class="cls-2" points="306.43 68.61 296.9 85.11 315.96 85.11 306.43 68.61"/>
  <polygon class="cls-2" points="221.64 145.28 240.66 144.06 230.09 128.2 221.64 145.28"/>
  <polygon class="cls-2" points="275.05 117.25 294.07 116.03 283.5 100.17 275.05 117.25"/>
  <polygon class="cls-2" points="318.48 427.83 308.96 444.33 328.01 444.33 318.48 427.83"/>
  <polygon class="cls-2" points="280.68 418.04 271.15 434.54 290.2 434.54 280.68 418.04"/>
  <polygon class="cls-2" points="249.32 420.6 239.8 437.1 258.85 437.1 249.32 420.6"/>
  <polygon class="cls-2" points="222.19 389.53 215.58 400.79 228.81 400.79 222.19 389.53"/>
  <polygon class="cls-2" points="204.93 408.16 188.43 398.63 188.43 417.69 204.93 408.16"/>
  <line class="cls-3" x1="525.26" y1="282.84" x2="497.64" y2="282.84"/>
  <line class="cls-1" x1="523.46" y1="144.16" x2="494.25" y2="143.97"/>
  <polygon class="cls-2" points="508.49 283.69 495.28 276.94 495.46 290.78 508.49 283.69"/>
  <polygon class="cls-2" points="503.55 363.02 490.34 356.27 490.52 370.11 503.55 363.02"/>
  <line class="cls-3" x1="506.88" y1="176.32" x2="475.72" y2="176.32"/>
  <line class="cls-3" x1="507.08" y1="253.65" x2="475.92" y2="253.65"/>
</svg>
