<svg id="Слой_1" data-name="Слой 1" xmlns="http://www.w3.org/2000/svg" viewBox="0 0 472.22 420.01"><defs><style>.cls-1{fill:#009640;}.cls-1,.cls-3{stroke:#1d1d1b;}.cls-1,.cls-2,.cls-3,.cls-4,.cls-5{stroke-miterlimit:10;}.cls-1,.cls-2{stroke-width:6px;}.cls-2,.cls-4,.cls-5{fill:none;stroke:#3aaa35;}.cls-3{fill:#3aaa35;stroke-width:0.5px;}.cls-4{stroke-width:4px;}.cls-5{stroke-width:5px;}</style></defs><path class="cls-1" d="M470.93,385.53" transform="translate(-121.5 3.43)"/><line class="cls-2" x1="395.02" y1="346.96" x2="395.02" y2="261.7"/><line class="cls-2" x1="437.81" y1="347.78" x2="392.02" y2="347.78"/><line class="cls-2" x1="437.81" y1="344.78" x2="437.81" y2="380.52"/><path class="cls-2" d="M306.61,380.68c-19.92,13.56-47.24-3.07-111.29-23.23-28-8.83-51.25-14.59-66-18" transform="translate(-121.5 3.43)"/><path class="cls-2" d="M513.51,344.35s-93.41-18.17-137,0" transform="translate(-121.5 3.43)"/><line class="cls-2" x1="25.94" y1="346.27" x2="26.21" y2="402.85"/><line class="cls-2" x1="44.41" y1="353.17" x2="44.8" y2="403.11"/><path class="cls-2" d="M147.71,399.4c0,8.42,18.83,6.61,18.58-.13" transform="translate(-121.5 3.43)"/><line class="cls-2" x1="256.01" y1="347.38" x2="183.87" y2="384.75"/><line class="cls-2" x1="392.89" y1="347.78" x2="390.65" y2="347.53"/><line class="cls-2" x1="381.87" y1="346.02" x2="394.02" y2="347.78"/><line class="cls-2" x1="392.02" y1="347.72" x2="395.8" y2="347.72"/><path class="cls-2" d="M528.26,344.35s-1,42.71-.52,56.65-22.22,16.52-22.22,0" transform="translate(-121.5 3.43)"/><line class="cls-2" x1="384.02" y1="398.67" x2="384.02" y2="388.21"/><line class="cls-2" x1="392.02" y1="258.83" x2="472.22" y2="258.83"/><polygon class="cls-3" points="444.54 258.08 461.04 267.61 461.04 248.55 444.54 258.08"/><polygon class="cls-3" points="403.88 258.08 420.38 267.61 420.38 248.55 403.88 258.08"/><polygon class="cls-3" points="395.02 289.89 404.55 273.39 385.49 273.39 395.02 289.89"/><polygon class="cls-3" points="395.02 335.49 404.55 318.99 385.49 318.99 395.02 335.49"/><polygon class="cls-3" points="384.02 410.75 393.55 394.25 374.5 394.25 384.02 410.75"/><polygon class="cls-3" points="405.98 372.38 396.45 388.88 415.5 388.88 405.98 372.38"/><polygon class="cls-3" points="374.45 344.92 358.41 334.65 357.54 353.68 374.45 344.92"/><polygon class="cls-3" points="269.39 343.25 287.5 349.17 283.58 330.53 269.39 343.25"/><polygon class="cls-3" points="202.81 374.77 221.84 375.81 213.22 358.81 202.81 374.77"/><polygon class="cls-3" points="129.06 379.77 142.89 392.88 147.33 374.35 129.06 379.77"/><polygon class="cls-3" points="70.26 360.39 84.09 373.5 88.53 354.98 70.26 360.39"/><polygon class="cls-3" points="0.49 340.32 14.31 353.43 18.75 334.9 0.49 340.32"/><polygon class="cls-3" points="26.13 396.8 35.66 380.3 16.61 380.3 26.13 396.8"/><polygon class="cls-3" points="44.6 380.13 35.08 396.63 54.13 396.63 44.6 380.13"/><polygon class="cls-3" points="44.6 380.3 35.08 396.8 54.13 396.8 44.6 380.3"/><polygon class="cls-3" points="432.92 347.65 416.42 338.13 416.42 357.18 432.92 347.65"/><polygon class="cls-3" points="437.81 385.38 447.34 368.88 428.28 368.88 437.81 385.38"/><line class="cls-4" x1="323.5" y1="339.99" x2="323.5" y2="389.03"/><line class="cls-4" x1="334.21" y1="414.87" x2="323.5" y2="388.03"/><line class="cls-4" x1="322.33" y1="273.39" x2="322.33" y2="336.82"/><line class="cls-4" x1="289.31" y1="339.99" x2="289.31" y2="273.39"/><line class="cls-4" x1="254.99" y1="278.14" x2="254.99" y2="345.88"/><line class="cls-4" x1="221.7" y1="280.14" x2="254.99" y2="280.14"/><polygon class="cls-3" points="245.46 313.24 254.99 329.74 264.51 313.24 245.46 313.24"/><polygon class="cls-3" points="229.43 289.66 245.93 280.14 229.43 270.61 229.43 289.66"/><polygon class="cls-3" points="289.69 308.14 299.21 291.64 280.16 291.64 289.69 308.14"/><polygon class="cls-3" points="322.33 308.14 331.85 291.64 312.8 291.64 322.33 308.14"/><polygon class="cls-3" points="333.32 340.75 317.27 330.48 316.4 349.52 333.32 340.75"/><polygon class="cls-3" points="323.5 377.75 313.98 394.25 333.03 394.25 323.5 377.75"/><polygon class="cls-3" points="331.33 408.53 328.5 419.65 339.76 416.31 331.33 408.53"/><line class="cls-5" x1="412.92" y1="201.59" x2="348.96" y2="201.59"/><line class="cls-5" x1="349.44" y1="201.59" x2="344.8" y2="25.85"/><line class="cls-5" x1="344.8" y1="25.85" x2="354.86" y2="12.69"/><path class="cls-5" d="M530.81,35.32l-21.68.26q-.06-8.44-.13-16.9" transform="translate(-121.5 3.43)"/><line class="cls-5" x1="438.24" y1="22.11" x2="385.07" y2="22.11"/><path class="cls-5" d="M568.35,12.68c0,7.09-11.61,6-11.61,6" transform="translate(-121.5 3.43)"/><polygon class="cls-3" points="353.63 0.5 344.11 17 363.16 17 353.63 0.5"/><polygon class="cls-3" points="447.04 7.48 441.05 17 453.03 17 447.04 7.48"/><polygon class="cls-3" points="394.25 38.34 403.76 44.33 403.76 32.35 394.25 38.34"/><polygon class="cls-3" points="387.5 26.01 381.52 35.53 393.49 35.53 387.5 26.01"/><polygon class="cls-3" points="416.41 22.17 406.9 16.18 406.9 28.16 416.41 22.17"/><polygon class="cls-3" points="437.06 22.17 427.54 16.18 427.54 28.16 437.06 22.17"/><polygon class="cls-3" points="347.08 21.87 337.57 27.86 348.37 33.04 347.08 21.87"/><polygon class="cls-3" points="346.89 94.31 337.37 110.81 356.42 110.81 346.89 94.31"/><polygon class="cls-3" points="349.83 190.59 340.3 207.09 359.35 207.09 349.83 190.59"/></svg>