<svg id="Слой_1" data-name="Слой 1" xmlns="http://www.w3.org/2000/svg" width="503.84" height="429.92" viewBox="0 0 503.84 429.92">
  <defs>
    <style>
      .cls-1 {
        fill: none;
        stroke: #39a935;
        stroke-width: 5px;
      }

      .cls-1, .cls-2 {
        stroke-miterlimit: 10;
      }

      .cls-2 {
        fill: #39a935;
        stroke: #1d1d1b;
        stroke-width: 0.5px;
      }
    </style>
  </defs>
  <line class="cls-1" x1="432.27" y1="55.16" x2="432.27" y2="166"/>
  <line class="cls-1" x1="410.6" y1="36.61" x2="432.93" y2="57.06"/>
  <path class="cls-1" d="M503.06,170.68c0,27.18,0,67.53,0,108.51" transform="translate(-53.33 -7)"/>
  <path class="cls-1" d="M224,330c55.51,0,137.92,0,221.62,0" transform="translate(-53.33 -7)"/>
  <path class="cls-1" d="M122.92,346.14c25.44-4,63.16-10.21,101.53-16.16" transform="translate(-53.33 -7)"/>
  <path class="cls-1" d="M80.18,346c10.8-.07,26.84.14,43.12,0" transform="translate(-53.33 -7)"/>
  <path class="cls-1" d="M154.22,410.08c15.37-.09,38.2.18,61.38,0" transform="translate(-53.33 -7)"/>
  <path class="cls-1" d="M267.11,410c15.37-.09,38.2.18,61.37,0" transform="translate(-53.33 -7)"/>
  <path class="cls-1" d="M359.29,330c.1,23.79-.21,59.11,0,95" transform="translate(-53.33 -7)"/>
  <path class="cls-1" d="M420.4,330c.15,23.79-.29,59.11,0,95" transform="translate(-53.33 -7)"/>
  <path class="cls-1" d="M269.6,330v80.51" transform="translate(-53.33 -7)"/>
  <path class="cls-1" d="M182.41,253.72c15.37-.09,38.19.18,61.37,0" transform="translate(-53.33 -7)"/>
  <path class="cls-1" d="M69.05,279.18c14.06-.08,34.93.14,56.13,0" transform="translate(-53.33 -7)"/>
  <path class="cls-1" d="M122.93,276.94c.07,17.26-.13,42.89,0,68.92" transform="translate(-53.33 -7)"/>
  <path class="cls-1" d="M78.8,389.9c-.06-11.62.11-28.87,0-46.39" transform="translate(-53.33 -7)"/>
  <path class="cls-1" d="M59.22,375.64c.11,3.43-.22,8.52,0,13.69" transform="translate(-53.33 -7)"/>
  <line class="cls-1" x1="452.24" y1="163.68" x2="429.79" y2="163.68"/>
  <line class="cls-1" x1="449.73" y1="272.19" x2="449.73" y2="299.74"/>
  <line class="cls-1" x1="452.23" y1="299.84" x2="392.62" y2="299.84"/>
  <line class="cls-1" x1="392.83" y1="297.34" x2="392.83" y2="344.18"/>
  <line class="cls-1" x1="392.85" y1="345.61" x2="392.85" y2="400.15"/>
  <line class="cls-1" x1="390.33" y1="343.94" x2="425.04" y2="343.94"/>
  <line class="cls-1" x1="425.21" y1="341.43" x2="425.21" y2="388.4"/>
  <line class="cls-1" x1="454.34" y1="388.28" x2="454.34" y2="360.4"/>
  <path class="cls-1" d="M478.55,395.42c0,6.95,5.2,10.83,14.55,10.83" transform="translate(-53.33 -7)"/>
  <path class="cls-1" d="M507.68,395.28c0,7-5.22,11-14.58,11" transform="translate(-53.33 -7)"/>
  <line class="cls-1" x1="449.73" y1="241.1" x2="396.7" y2="241.1"/>
  <line class="cls-1" x1="488.92" y1="241.1" x2="488.92" y2="272.19"/>
  <line class="cls-1" x1="450.21" y1="272.2" x2="491.44" y2="272.2"/>
  <line class="cls-1" x1="432.27" y1="119.35" x2="384.69" y2="119.35"/>
  <line class="cls-1" x1="384.12" y1="121.84" x2="384.12" y2="26.03"/>
  <line class="cls-1" x1="382.42" y1="28.36" x2="423.8" y2="14.55"/>
  <line class="cls-1" x1="422.79" y1="14.7" x2="432.51" y2="14.69"/>
  <line class="cls-1" x1="431.17" y1="15.04" x2="448.48" y2="5.48"/>
  <line class="cls-1" x1="447.33" y1="5.81" x2="491.67" y2="5.81"/>
  <line class="cls-1" x1="491.66" y1="23.32" x2="452.31" y2="23.32"/>
  <path class="cls-1" d="M545,12.81c6.64,0,9.67,3,9.67,9.61" transform="translate(-53.33 -7)"/>
  <path class="cls-1" d="M545,30.32c6.65,0,9.68-2.47,9.68-7.9" transform="translate(-53.33 -7)"/>
  <polygon class="cls-2" points="458.46 23.32 467.86 28.7 467.86 17.95 458.46 23.32"/>
  <polygon class="cls-2" points="477.62 23.32 487.02 28.7 487.02 17.95 477.62 23.32"/>
  <polygon class="cls-2" points="490.15 5.81 480.76 0.43 480.76 11.18 490.15 5.81"/>
  <polygon class="cls-2" points="469.32 5.81 459.92 0.43 459.92 11.18 469.32 5.81"/>
  <polygon class="cls-2" points="384.09 35.11 378.72 44.51 389.47 44.51 384.09 35.11"/>
  <polygon class="cls-2" points="384.09 70.04 378.72 79.44 389.47 79.44 384.09 70.04"/>
  <polygon class="cls-2" points="432.27 66.46 426.9 75.86 437.65 75.86 432.27 66.46"/>
  <polygon class="cls-2" points="415.14 40.33 417.98 50.77 425.58 43.17 415.14 40.33"/>
  <polygon class="cls-2" points="432.27 96.22 437.65 86.82 426.9 86.82 432.27 96.22"/>
  <polygon class="cls-2" points="432.27 145.04 426.9 154.44 437.65 154.44 432.27 145.04"/>
  <polygon class="cls-2" points="449.73 180.32 455.11 170.92 444.36 170.92 449.73 180.32"/>
  <polygon class="cls-2" points="449.73 208.67 455.11 199.27 444.36 199.27 449.73 208.67"/>
  <polygon class="cls-2" points="411.19 241.1 401.79 235.73 401.79 246.48 411.19 241.1"/>
  <polygon class="cls-2" points="449.35 247.37 454.72 237.97 443.97 237.97 449.35 247.37"/>
  <polygon class="cls-2" points="488.92 255.4 494.3 246 483.55 246 488.92 255.4"/>
  <polygon class="cls-2" points="449.35 290.67 454.72 281.27 443.97 281.27 449.35 290.67"/>
  <polygon class="cls-2" points="392.83 319.12 398.2 309.72 387.45 309.72 392.83 319.12"/>
  <polygon class="cls-2" points="392.83 340.6 398.2 331.2 387.45 331.2 392.83 340.6"/>
  <polygon class="cls-2" points="392.85 359.55 387.47 368.94 398.22 368.94 392.85 359.55"/>
  <polygon class="cls-2" points="392.85 383.35 387.47 392.75 398.22 392.75 392.85 383.35"/>
  <polygon class="cls-2" points="366.97 388.05 361.59 397.45 372.34 397.45 366.97 388.05"/>
  <polygon class="cls-2" points="305.98 386.49 300.6 395.88 311.35 395.88 305.98 386.49"/>
  <polygon class="cls-2" points="262.57 403.02 271.96 408.4 271.96 397.65 262.57 403.02"/>
  <polygon class="cls-2" points="227.15 403.02 236.54 408.4 236.54 397.65 227.15 403.02"/>
  <polygon class="cls-2" points="146.05 403.49 155.45 408.86 155.45 398.11 146.05 403.49"/>
  <polygon class="cls-2" points="114.08 403.1 123.48 408.47 123.48 397.72 114.08 403.1"/>
  <polygon class="cls-2" points="216.26 377.09 210.89 386.49 221.64 386.49 216.26 377.09"/>
  <polygon class="cls-2" points="215.49 339.48 210.12 348.88 220.87 348.88 215.49 339.48"/>
  <polygon class="cls-2" points="201.74 323.03 211.13 328.41 211.13 317.66 201.74 323.03"/>
  <polygon class="cls-2" points="32.77 338.86 42.17 344.24 42.17 333.49 32.77 338.86"/>
  <polygon class="cls-2" points="145.37 246.71 135.97 241.33 135.97 252.08 145.37 246.71"/>
  <polygon class="cls-2" points="28.27 272.16 18.87 266.79 18.87 277.54 28.27 272.16"/>
  <polygon class="cls-2" points="60.48 272.23 51.08 266.85 51.08 277.6 60.48 272.23"/>
  <polygon class="cls-2" points="180.03 246.71 170.63 241.33 170.63 252.08 180.03 246.71"/>
  <polygon class="cls-2" points="284.55 323.03 275.15 317.66 275.15 328.41 284.55 323.03"/>
  <polygon class="cls-2" points="345.9 322.98 336.5 317.61 336.5 328.36 345.9 322.98"/>
  <polygon class="cls-2" points="382.68 323.03 373.28 317.66 373.28 328.41 382.68 323.03"/>
  <polygon class="cls-2" points="305.88 339.48 300.51 348.88 311.26 348.88 305.88 339.48"/>
  <polygon class="cls-2" points="366.97 339.24 361.59 348.63 372.34 348.63 366.97 339.24"/>
  <polygon class="cls-2" points="464.56 272.19 473.96 277.57 473.96 266.82 464.56 272.19"/>
  <polygon class="cls-2" points="426.52 299.84 435.92 305.21 435.92 294.46 426.52 299.84"/>
  <polygon class="cls-2" points="425.21 374.24 430.59 364.84 419.84 364.84 425.21 374.24"/>
  <polygon class="cls-2" points="454.31 364.84 448.94 374.24 459.69 374.24 454.31 364.84"/>
  <polygon class="cls-2" points="399.33 299.84 408.73 305.21 408.73 294.46 399.33 299.84"/>
  <polygon class="cls-2" points="384.09 102.56 378.72 111.96 389.47 111.96 384.09 102.56"/>
  <polygon class="cls-2" points="445.29 6.86 434.54 5.58 438.74 15.48 445.29 6.86"/>
  <line class="cls-1" x1="411.45" y1="38.54" x2="411.36" y2="19.57"/>
  <polygon class="cls-2" points="410.2 18.18 399.65 15.75 402.76 26.04 410.2 18.18"/>
  <path class="cls-1" d="M78.8,388.54c0,4.64-4.5,8.39-10.06,8.39" transform="translate(-53.33 -7)"/>
  <path class="cls-1" d="M59.15,387.85a9.34,9.34,0,0,0,9.59,9.08" transform="translate(-53.33 -7)"/>
  <line class="cls-1" x1="54.21" y1="339.03" x2="54.21" y2="403.1"/>
  <line class="cls-1" x1="103.4" y1="333.7" x2="103.4" y2="403.49"/>
  <line class="cls-1" x1="188.14" y1="323.03" x2="187.96" y2="246.77"/>
  <line class="cls-1" x1="489.35" y1="403.43" x2="471.67" y2="424.98"/>
  <line class="cls-1" x1="473.47" y1="424.11" x2="445.07" y2="424.11"/>
  <line class="cls-1" x1="446.05" y1="424.39" x2="391.56" y2="398.04"/>
  <polygon class="cls-2" points="453.37 424.11 462.77 429.49 462.77 418.74 453.37 424.11"/>
  <polygon class="cls-2" points="419.79 411.18 425.24 420.54 430.62 411.23 419.79 411.18"/>
  <polygon class="cls-2" points="481.17 415.02 490.52 409.56 481.21 404.19 481.17 415.02"/>
  <polygon class="cls-2" points="103.4 376.07 98.02 385.47 108.77 385.47 103.4 376.07"/>
  <polygon class="cls-2" points="54.21 381.04 48.84 390.44 59.59 390.44 54.21 381.04"/>
  <polygon class="cls-2" points="54.21 352.01 48.84 361.41 59.59 361.41 54.21 352.01"/>
  <polygon class="cls-2" points="5.81 372.39 0.43 381.79 11.18 381.79 5.81 372.39"/>
  <polygon class="cls-2" points="103.4 342.61 98.02 352.01 108.77 352.01 103.4 342.61"/>
  <polygon class="cls-2" points="153.03 326.97 163.38 330.14 161.01 319.65 153.03 326.97"/>
  <polygon class="cls-2" points="116.23 332.45 126.58 335.62 124.21 325.13 116.23 332.45"/>
  <polygon class="cls-2" points="81.51 338.58 91.86 341.75 89.49 331.27 81.51 338.58"/>
  <polygon class="cls-2" points="188.05 272.64 193.43 263.25 182.68 263.25 188.05 272.64"/>
  <polygon class="cls-2" points="69.55 291.17 74.93 281.77 64.18 281.77 69.55 291.17"/>
  <polygon class="cls-2" points="69.55 322.14 74.93 312.74 64.18 312.74 69.55 322.14"/>
  <polygon class="cls-2" points="188.05 307.68 193.43 298.28 182.68 298.28 188.05 307.68"/>
  <polygon class="cls-2" points="25.15 383.35 30.53 373.95 19.78 373.95 25.15 383.35"/>
  <polygon class="cls-2" points="25.15 359.71 30.53 350.31 19.78 350.31 25.15 359.71"/>
</svg>
